<svg xmlns="http://www.w3.org/2000/svg" version="1.1" xmlns:xlink="http://www.w3.org/1999/xlink" xmlns:svgjs="http://svgjs.dev/svgjs" viewBox="0 0 800 800" opacity="0.49"><defs><linearGradient x1="50%" y1="0%" x2="50%" y2="100%" id="cccoil-grad"><stop stop-color="hsl(206, 75%, 49%)" stop-opacity="1" offset="0%"></stop><stop stop-color="hsl(331, 90%, 56%)" stop-opacity="1" offset="100%"></stop></linearGradient></defs><g stroke="url(#cccoil-grad)" fill="none" stroke-linecap="round"><circle r="589" cx="400" cy="400" stroke-width="8.5" stroke-dasharray="3701 3701" transform="rotate(360, 400, 400)" opacity="0.05"></circle><circle r="573.5" cx="400" cy="400" stroke-width="8.5" stroke-dasharray="3506 3603" transform="rotate(350, 400, 400)" opacity="0.08"></circle><circle r="558" cx="400" cy="400" stroke-width="8.5" stroke-dasharray="3317 3506" transform="rotate(341, 400, 400)" opacity="0.10"></circle><circle r="542.5" cx="400" cy="400" stroke-width="8.5" stroke-dasharray="3132 3409" transform="rotate(331, 400, 400)" opacity="0.13"></circle><circle r="527" cx="400" cy="400" stroke-width="8.5" stroke-dasharray="2953 3311" transform="rotate(321, 400, 400)" opacity="0.15"></circle><circle r="511.5" cx="400" cy="400" stroke-width="8.5" stroke-dasharray="2780 3214" transform="rotate(311, 400, 400)" opacity="0.18"></circle><circle r="496" cx="400" cy="400" stroke-width="8.5" stroke-dasharray="2611 3116" transform="rotate(302, 400, 400)" opacity="0.20"></circle><circle r="480.5" cx="400" cy="400" stroke-width="8.5" stroke-dasharray="2448 3019" transform="rotate(292, 400, 400)" opacity="0.23"></circle><circle r="465" cx="400" cy="400" stroke-width="8.5" stroke-dasharray="2290 2922" transform="rotate(282, 400, 400)" opacity="0.26"></circle><circle r="449.5" cx="400" cy="400" stroke-width="8.5" stroke-dasharray="2137 2824" transform="rotate(272, 400, 400)" opacity="0.28"></circle><circle r="434" cx="400" cy="400" stroke-width="8.5" stroke-dasharray="1990 2727" transform="rotate(263, 400, 400)" opacity="0.31"></circle><circle r="418.5" cx="400" cy="400" stroke-width="8.5" stroke-dasharray="1848 2630" transform="rotate(253, 400, 400)" opacity="0.33"></circle><circle r="403" cx="400" cy="400" stroke-width="8.5" stroke-dasharray="1711 2532" transform="rotate(243, 400, 400)" opacity="0.36"></circle><circle r="387.5" cx="400" cy="400" stroke-width="8.5" stroke-dasharray="1579 2435" transform="rotate(234, 400, 400)" opacity="0.38"></circle><circle r="372" cx="400" cy="400" stroke-width="8.5" stroke-dasharray="1453 2337" transform="rotate(224, 400, 400)" opacity="0.41"></circle><circle r="356.5" cx="400" cy="400" stroke-width="8.5" stroke-dasharray="1332 2240" transform="rotate(214, 400, 400)" opacity="0.44"></circle><circle r="341" cx="400" cy="400" stroke-width="8.5" stroke-dasharray="1216 2143" transform="rotate(204, 400, 400)" opacity="0.46"></circle><circle r="325.5" cx="400" cy="400" stroke-width="8.5" stroke-dasharray="1106 2045" transform="rotate(195, 400, 400)" opacity="0.49"></circle><circle r="310" cx="400" cy="400" stroke-width="8.5" stroke-dasharray="1000 1948" transform="rotate(185, 400, 400)" opacity="0.51"></circle><circle r="294.5" cx="400" cy="400" stroke-width="8.5" stroke-dasharray="900 1850" transform="rotate(175, 400, 400)" opacity="0.54"></circle><circle r="279" cx="400" cy="400" stroke-width="8.5" stroke-dasharray="805 1753" transform="rotate(165, 400, 400)" opacity="0.56"></circle><circle r="263.5" cx="400" cy="400" stroke-width="8.5" stroke-dasharray="716 1656" transform="rotate(156, 400, 400)" opacity="0.59"></circle><circle r="248" cx="400" cy="400" stroke-width="8.5" stroke-dasharray="632 1558" transform="rotate(146, 400, 400)" opacity="0.61"></circle><circle r="232.5" cx="400" cy="400" stroke-width="8.5" stroke-dasharray="553 1461" transform="rotate(136, 400, 400)" opacity="0.64"></circle><circle r="217" cx="400" cy="400" stroke-width="8.5" stroke-dasharray="479 1363" transform="rotate(126, 400, 400)" opacity="0.67"></circle><circle r="201.5" cx="400" cy="400" stroke-width="8.5" stroke-dasharray="411 1266" transform="rotate(117, 400, 400)" opacity="0.69"></circle><circle r="186" cx="400" cy="400" stroke-width="8.5" stroke-dasharray="347 1169" transform="rotate(107, 400, 400)" opacity="0.72"></circle><circle r="170.5" cx="400" cy="400" stroke-width="8.5" stroke-dasharray="290 1071" transform="rotate(97, 400, 400)" opacity="0.74"></circle><circle r="155" cx="400" cy="400" stroke-width="8.5" stroke-dasharray="237 974" transform="rotate(88, 400, 400)" opacity="0.77"></circle><circle r="139.5" cx="400" cy="400" stroke-width="8.5" stroke-dasharray="190 877" transform="rotate(78, 400, 400)" opacity="0.79"></circle><circle r="124" cx="400" cy="400" stroke-width="8.5" stroke-dasharray="147 779" transform="rotate(68, 400, 400)" opacity="0.82"></circle><circle r="108.5" cx="400" cy="400" stroke-width="8.5" stroke-dasharray="111 682" transform="rotate(58, 400, 400)" opacity="0.85"></circle><circle r="93" cx="400" cy="400" stroke-width="8.5" stroke-dasharray="79 584" transform="rotate(49, 400, 400)" opacity="0.87"></circle><circle r="77.5" cx="400" cy="400" stroke-width="8.5" stroke-dasharray="53 487" transform="rotate(39, 400, 400)" opacity="0.90"></circle><circle r="62" cx="400" cy="400" stroke-width="8.5" stroke-dasharray="32 390" transform="rotate(29, 400, 400)" opacity="0.92"></circle><circle r="46.5" cx="400" cy="400" stroke-width="8.5" stroke-dasharray="16 292" transform="rotate(19, 400, 400)" opacity="0.95"></circle><circle r="31" cx="400" cy="400" stroke-width="8.5" stroke-dasharray="5 195" transform="rotate(10, 400, 400)" opacity="0.97"></circle><circle r="15.5" cx="400" cy="400" stroke-width="8.5" stroke-dasharray="0 97" opacity="1.00"></circle></g></svg>
